<svg width="1600" height="500" viewBox="0 0 1600 500" fill="none" xmlns="http://www.w3.org/2000/svg">
<rect width="1600" height="500" rx="20" fill="white"/>
<rect width="1600" height="500" rx="20" fill="url(#paint0_linear)"/>
<rect width="1600" height="500" rx="20" fill="url(#paint1_radial)"/>
<path d="M684.493 236.2C684.24 236.6 684.298 237.125 684.654 237.437C688.245 240.595 693.388 242.265 698.983 242.265C708.356 242.265 713.475 237.603 713.475 231.506C713.475 223.329 706.049 221.607 699.992 220.316C695.882 219.384 692.422 218.451 692.422 215.797C692.422 213.358 694.945 211.924 698.911 211.924C702.632 211.924 706.034 213.251 708.243 215.129C708.759 215.568 709.576 215.491 709.923 214.909L711.967 211.489C712.214 211.076 712.133 210.543 711.758 210.24C708.634 207.717 704.367 205.898 698.839 205.898C690.042 205.898 685.14 210.776 685.14 216.443C685.14 224.189 692.277 225.768 698.262 227.059C702.516 227.991 706.193 229.067 706.193 232.08C706.193 234.662 703.886 236.312 699.343 236.312C695.32 236.312 691.072 234.455 688.449 232.287C687.952 231.876 687.188 231.956 686.842 232.501L684.493 236.2Z" fill="black"/>
<path d="M726.286 201.021C728.881 201.021 730.972 198.94 730.972 196.358C730.972 193.776 728.881 191.696 726.286 191.696C723.762 191.696 721.599 193.776 721.599 196.358C721.599 198.94 723.762 201.021 726.286 201.021ZM722.536 240.405C722.536 240.957 722.984 241.405 723.536 241.405H729.107C729.659 241.405 730.107 240.957 730.107 240.405V207.759C730.107 207.207 729.659 206.759 729.107 206.759H723.536C722.984 206.759 722.536 207.207 722.536 207.759V240.405Z" fill="black"/>
<path d="M764.874 240.405C764.874 240.957 765.322 241.405 765.874 241.405H771.445C771.997 241.405 772.445 240.957 772.445 240.405V217.016C772.445 209.915 768.695 205.898 761.197 205.898C756.998 205.898 753.391 207.583 750.897 209.597C750.172 210.183 748.94 209.695 748.94 208.764V207.759C748.94 207.207 748.492 206.759 747.94 206.759H742.37C741.817 206.759 741.37 207.207 741.37 207.759V240.405C741.37 240.957 741.817 241.405 742.37 241.405H747.94C748.492 241.405 748.94 240.957 748.94 240.405V217.558C748.94 217.346 749.006 217.139 749.137 216.971C750.915 214.699 754.13 212.569 757.88 212.569C762.134 212.569 764.874 214.362 764.874 219.742V240.405Z" fill="black"/>
<path d="M783.749 249.587C783.482 249.998 783.552 250.544 783.925 250.86C787.984 254.298 792.234 255.464 797.851 255.464C806.431 255.464 815.732 252.092 815.732 239.611V207.759C815.732 207.207 815.284 206.759 814.732 206.759H809.162C808.609 206.759 808.162 207.207 808.162 207.759V208.623C808.162 209.578 806.878 210.046 806.165 209.41C803.599 207.126 800.425 205.898 796.986 205.898C788.046 205.898 781.557 212.497 781.557 223.687C781.557 235.092 788.118 241.476 796.986 241.476C800.506 241.476 803.68 240.098 806.172 237.875C806.883 237.24 808.162 237.708 808.162 238.661V239.898C808.162 247 802.826 249.295 797.851 249.295C793.725 249.295 790.406 248.32 787.739 245.805C787.255 245.349 786.46 245.403 786.098 245.961L783.749 249.587ZM808.162 229.85C808.162 230.041 808.108 230.23 807.998 230.387C806.266 232.855 802.642 234.806 799.221 234.806C793.237 234.806 789.416 230.358 789.416 223.687C789.416 217.016 793.237 212.569 799.221 212.569C802.642 212.569 806.266 214.52 807.998 216.988C808.108 217.145 808.162 217.333 808.162 217.525V229.85Z" fill="black"/>
<path d="M826.985 240.405C826.985 240.957 827.433 241.405 827.985 241.405H833.556C834.108 241.405 834.556 240.957 834.556 240.405V194.561C834.556 194.008 834.108 193.561 833.556 193.561H827.985C827.433 193.561 826.985 194.008 826.985 194.561V240.405Z" fill="black"/>
<path d="M843.656 224.046C843.656 235.021 851.442 242.265 861.897 242.265C867.117 242.265 871.954 240.744 875.39 237.819C875.766 237.499 875.819 236.945 875.536 236.54L873.249 233.27C872.893 232.761 872.165 232.698 871.677 233.082C869.21 235.025 865.695 236.097 862.69 236.097C856.596 236.097 852.741 232.384 851.761 227.659C851.64 227.076 852.107 226.557 852.703 226.557H877.48C878.032 226.557 878.48 226.109 878.48 225.557V224.763C878.48 213.86 871.775 205.898 861.32 205.898C851.01 205.898 843.656 214.004 843.656 224.046ZM861.32 212.067C867.603 212.067 870.489 216.353 871.034 220.218C871.114 220.778 870.656 221.249 870.09 221.249H852.603C852.018 221.249 851.554 220.746 851.661 220.17C852.396 216.22 855.376 212.067 861.32 212.067Z" fill="black"/>
<path d="M887.394 240.405C887.394 240.957 887.842 241.405 888.394 241.405H893.965C894.517 241.405 894.965 240.957 894.965 240.405V194.561C894.965 194.008 894.517 193.561 893.965 193.561H888.394C887.842 193.561 887.394 194.008 887.394 194.561V240.405Z" fill="black"/>
<path d="M909.977 201.021C912.572 201.021 914.663 198.94 914.663 196.358C914.663 193.776 912.572 191.696 909.977 191.696C907.453 191.696 905.29 193.776 905.29 196.358C905.29 198.94 907.453 201.021 909.977 201.021ZM906.228 240.405C906.228 240.957 906.675 241.405 907.228 241.405H912.798C913.35 241.405 913.798 240.957 913.798 240.405V207.759C913.798 207.207 913.35 206.759 912.798 206.759H907.228C906.675 206.759 906.228 207.207 906.228 207.759V240.405Z" fill="black"/>
<path d="M948.565 240.405C948.565 240.957 949.013 241.405 949.565 241.405H955.136C955.688 241.405 956.136 240.957 956.136 240.405V217.016C956.136 209.915 952.387 205.898 944.888 205.898C940.689 205.898 937.083 207.583 934.588 209.597C933.863 210.183 932.631 209.695 932.631 208.764V207.759C932.631 207.207 932.184 206.759 931.631 206.759H926.061C925.509 206.759 925.061 207.207 925.061 207.759V240.405C925.061 240.957 925.509 241.405 926.061 241.405H931.631C932.184 241.405 932.631 240.957 932.631 240.405V217.558C932.631 217.346 932.697 217.139 932.828 216.971C934.606 214.699 937.821 212.569 941.572 212.569C945.826 212.569 948.565 214.362 948.565 219.742V240.405Z" fill="black"/>
<path d="M990.183 241.003C990.372 241.256 990.669 241.405 990.984 241.405H997.951C998.784 241.405 999.252 240.446 998.739 239.789L985.742 223.137C985.441 222.751 985.463 222.204 985.795 221.844L998.164 208.437C998.755 207.796 998.3 206.759 997.429 206.759H990.778C990.498 206.759 990.231 206.876 990.042 207.082L976.718 221.582C976.101 222.254 974.981 221.817 974.981 220.906V194.561C974.981 194.008 974.534 193.561 973.981 193.561H968.411C967.859 193.561 967.411 194.008 967.411 194.561V240.405C967.411 240.957 967.859 241.405 968.411 241.405H973.981C974.534 241.405 974.981 240.957 974.981 240.405V232.487C974.981 232.226 975.084 231.975 975.266 231.788L978.996 227.967C979.424 227.528 980.144 227.575 980.512 228.067L990.183 241.003Z" fill="black"/>
<path d="M608.696 229.439C612.418 222.992 628.56 215.929 635.633 213.077C637.368 212.378 639.257 213.468 639.519 215.321C640.586 222.872 642.54 240.383 638.818 246.83C634.016 255.148 623.379 257.998 615.061 253.196C606.743 248.393 603.893 237.757 608.696 229.439Z" fill="#1127EF"/>
<g style="mix-blend-mode:hard-light">
<path d="M656.934 215.453C653.212 221.9 637.07 228.963 629.997 231.814C628.262 232.514 626.373 231.423 626.111 229.57C625.043 222.019 623.089 204.508 626.812 198.061C631.614 189.743 642.251 186.893 650.569 191.696C658.887 196.498 661.737 207.134 656.934 215.453Z" fill="#03D2D4"/>
</g>
<path d="M667.275 317V290.818H684.917V295.382H672.811V301.621H684.01V306.185H672.811V312.436H684.969V317H667.275Z" fill="#5353EC"/>
<path d="M716.618 290.818V317H711.836L700.446 300.521H700.254V317H694.718V290.818H699.576L710.877 307.284H711.108V290.818H716.618Z" fill="#5353EC"/>
<path d="M725.594 295.382V290.818H747.097V295.382H739.081V317H733.609V295.382H725.594Z" fill="#5353EC"/>
<path d="M756.038 317V290.818H773.68V295.382H761.573V301.621H772.772V306.185H761.573V312.436H773.731V317H756.038Z" fill="#5353EC"/>
<path d="M783.481 317V290.818H793.81C795.788 290.818 797.475 291.172 798.873 291.879C800.279 292.578 801.349 293.571 802.082 294.858C802.823 296.136 803.194 297.641 803.194 299.371C803.194 301.109 802.819 302.605 802.069 303.858C801.319 305.102 800.232 306.057 798.809 306.722C797.394 307.386 795.681 307.719 793.67 307.719H786.754V303.27H792.775C793.832 303.27 794.71 303.125 795.408 302.835C796.107 302.545 796.627 302.111 796.968 301.531C797.317 300.952 797.492 300.232 797.492 299.371C797.492 298.501 797.317 297.768 796.968 297.172C796.627 296.575 796.103 296.124 795.396 295.817C794.697 295.501 793.815 295.344 792.749 295.344H789.016V317H783.481ZM797.62 305.085L804.127 317H798.016L791.65 305.085H797.62Z" fill="#5353EC"/>
<path d="M812.506 317V290.818H822.835C824.821 290.818 826.513 291.197 827.911 291.956C829.308 292.706 830.374 293.75 831.107 295.088C831.848 296.418 832.219 297.952 832.219 299.69C832.219 301.429 831.844 302.963 831.094 304.293C830.344 305.622 829.257 306.658 827.834 307.399C826.419 308.141 824.706 308.511 822.695 308.511H816.111V304.075H821.8C822.865 304.075 823.743 303.892 824.433 303.526C825.132 303.151 825.652 302.635 825.993 301.979C826.342 301.314 826.517 300.551 826.517 299.69C826.517 298.821 826.342 298.062 825.993 297.415C825.652 296.759 825.132 296.251 824.433 295.893C823.735 295.527 822.848 295.344 821.774 295.344H818.041V317H812.506Z" fill="#5353EC"/>
<path d="M841.214 317V290.818H851.544C853.521 290.818 855.209 291.172 856.606 291.879C858.013 292.578 859.082 293.571 859.815 294.858C860.557 296.136 860.928 297.641 860.928 299.371C860.928 301.109 860.553 302.605 859.803 303.858C859.053 305.102 857.966 306.057 856.543 306.722C855.128 307.386 853.415 307.719 851.403 307.719H844.487V303.27H850.508C851.565 303.27 852.443 303.125 853.142 302.835C853.841 302.545 854.361 302.111 854.702 301.531C855.051 300.952 855.226 300.232 855.226 299.371C855.226 298.501 855.051 297.768 854.702 297.172C854.361 296.575 853.837 296.124 853.129 295.817C852.43 295.501 851.548 295.344 850.483 295.344H846.75V317H841.214ZM855.354 305.085L861.861 317H855.75L849.383 305.085H855.354Z" fill="#5353EC"/>
<path d="M875.775 290.818V317H870.239V290.818H875.775Z" fill="#5353EC"/>
<path d="M899.932 298.348C899.83 297.317 899.391 296.516 898.616 295.945C897.84 295.374 896.788 295.088 895.458 295.088C894.555 295.088 893.792 295.216 893.17 295.472C892.547 295.719 892.07 296.064 891.738 296.507C891.414 296.95 891.252 297.453 891.252 298.016C891.235 298.484 891.333 298.893 891.546 299.243C891.768 299.592 892.07 299.895 892.454 300.151C892.837 300.398 893.28 300.615 893.783 300.803C894.286 300.982 894.823 301.135 895.394 301.263L897.746 301.825C898.888 302.081 899.937 302.422 900.891 302.848C901.846 303.274 902.672 303.798 903.371 304.42C904.07 305.043 904.611 305.776 904.995 306.619C905.387 307.463 905.587 308.43 905.596 309.521C905.587 311.124 905.178 312.513 904.368 313.689C903.567 314.857 902.408 315.764 900.891 316.412C899.383 317.051 897.563 317.371 895.432 317.371C893.319 317.371 891.478 317.047 889.91 316.399C888.35 315.751 887.131 314.793 886.253 313.523C885.384 312.244 884.928 310.663 884.886 308.78H890.242C890.302 309.658 890.553 310.391 890.996 310.979C891.448 311.558 892.049 311.997 892.799 312.295C893.557 312.585 894.414 312.73 895.368 312.73C896.306 312.73 897.12 312.594 897.81 312.321C898.509 312.048 899.05 311.669 899.434 311.183C899.817 310.697 900.009 310.139 900.009 309.509C900.009 308.92 899.834 308.426 899.485 308.026C899.144 307.625 898.641 307.284 897.976 307.003C897.32 306.722 896.515 306.466 895.56 306.236L892.709 305.52C890.502 304.983 888.759 304.143 887.481 303.001C886.202 301.859 885.567 300.321 885.576 298.386C885.567 296.801 885.989 295.416 886.842 294.232C887.702 293.047 888.883 292.122 890.383 291.457C891.883 290.793 893.587 290.46 895.496 290.46C897.44 290.46 899.136 290.793 900.584 291.457C902.042 292.122 903.175 293.047 903.985 294.232C904.795 295.416 905.212 296.788 905.238 298.348H899.932Z" fill="#5353EC"/>
<path d="M914.719 317V290.818H932.361V295.382H920.255V301.621H931.454V306.185H920.255V312.436H932.412V317H914.719Z" fill="#5353EC"/>
<defs>
<linearGradient id="paint0_linear" x1="800" y1="0" x2="800" y2="500" gradientUnits="userSpaceOnUse">
<stop stop-color="#5353EC" stop-opacity="0.1"/>
<stop offset="1" stop-color="#5353EC" stop-opacity="0.2"/>
</linearGradient>
<radialGradient id="paint1_radial" cx="0" cy="0" r="1" gradientUnits="userSpaceOnUse" gradientTransform="translate(800 250) scale(1213 3881.6)">
<stop stop-color="white"/>
<stop offset="0.348958" stop-color="white" stop-opacity="0"/>
</radialGradient>
</defs>
</svg>
